<svg xmlns="http://www.w3.org/2000/svg" viewBox="0 0 100 100">
  <defs>
    <linearGradient id="bgGradient" x1="0%" y1="0%" x2="100%" y2="100%">
      <stop offset="0%" style="stop-color:#f8fafc;stop-opacity:1" />
      <stop offset="100%" style="stop-color:#e0e7ff;stop-opacity:1" />
    </linearGradient>
  </defs>
  
  <!-- Background -->
  <rect width="100" height="100" fill="url(#bgGradient)" rx="10"/>
  
  <!-- Outer ring - screen capture indicator -->
  <circle cx="50" cy="50" r="40" fill="none" stroke="#667eea" stroke-width="2" stroke-dasharray="6 3" opacity="0.8"/>
  
  <!-- Nebula shape - organic blob -->
  <path d="M 35 43 Q 41 28 50 30 Q 61 31 64 44 Q 62 59 58 61 Q 53 62 50 58 Q 36 56 35 43 Z" fill="#667eea" opacity="0.9"/>
  
  <!-- Inner glow ellipse -->
  <ellipse cx="49" cy="49" rx="12" ry="8" transform="rotate(-11 49 49)" fill="#667eea" opacity="0.5"/>
  
  <!-- Center circle - recording indicator -->
  <circle cx="50" cy="50" r="6" fill="white"/>
  
  <!-- Corner indicators - screen capture corners -->
  <rect x="12" y="12" width="4" height="4" fill="#667eea" opacity="0.8"/>
  <rect x="84" y="12" width="4" height="4" fill="#667eea" opacity="0.8"/>
  <rect x="12" y="84" width="4" height="4" fill="#667eea" opacity="0.8"/>
  <rect x="84" y="84" width="4" height="4" fill="#667eea" opacity="0.8"/>
  
  <!-- Shadow for depth -->
  <circle cx="50" cy="52" r="25" fill="#000000" opacity="0.1"/>
  
  <!-- Highlight -->
  <circle cx="45" cy="42" r="8" fill="white" opacity="0.3"/>
</svg>